:SAMPLES-PER-SECOND 30
:FULLY-SPECIFIED
:DEGREES
280
root  20.5216 38.4028 22.6074 176.987 14.2779 179.662
RightUpLeg  -9.00917 -17.2505 -22.8
RightLeg  8.87298 -1.76684 -1.90093
RightFoot  -4.78444 -0.264495 4.0585
RightToes  -1.33073e-015 0 -3.6325e-017
Spine  10.4836 1.15946 -7.49057
Spine1  10.3778 -1.39051 7.45839
HEad  -21.2567 -50.9971 30.1705
LeftShoulder1  0.214064 2.87398 -27.8329
LeftArm  -9.1026 14.1944 -37.013
LeftForeArm  72.8633 -79.1762 -89.029
LeftHand  -0.13534 2.14982 4.50052
RightShoulder  -0.602442 -5.1929 28.9086
RightArm  -11.9346 -5.46297 37.5723
RightForeArm  60.2079 78.7566 85.3747
RightHand  -0.0527736 2.36042 -0.985603
LeftUpLeg  -3.238 3.65837 14.3451
LeftLeg  17.6879 -4.30193 -1.05094
LeftFoot  -9.253 0.211444 -8.58431
LeftToes  -1.93726e-010 2.42366e-011 2.16268e-013
281
root  21.5911 38.0786 22.6865 177.072 14.8308 178.634
RightUpLeg  -9.51085 -17.4131 -22.9397
RightLeg  11.1917 -4.90561 -2.15261
RightFoot  -4.81955 -0.177865 2.68289
RightToes  -1.33073e-015 0 -3.6325e-017
Spine  10.4758 1.02673 -7.18887
Spine1  10.3752 -1.48245 7.52529
HEad  -21.5492 -51.5905 29.1173
LeftShoulder1  0.202016 2.9171 -28.2787
LeftArm  -9.05887 14.4333 -36.8256
LeftForeArm  71.6538 -79.1465 -88.4472
LeftHand  -0.177146 1.82578 5.56859
RightShoulder  -0.580726 -5.1436 28.6458
RightArm  -12.0482 -5.89232 37.4603
RightForeArm  63.7604 78.7922 88.853
RightHand  -0.0581931 2.08377 -1.08167
LeftUpLeg  -3.07589 3.76267 15.1614
LeftLeg  17.6334 -4.2073 -1.05723
LeftFoot  -9.55539 0.221181 -10.4754
LeftToes  -1.93726e-010 2.42366e-011 2.16268e-013
282
root  22.7385 37.7322 22.7668 176.919 15.2982 177.722
RightUpLeg  -9.97983 -17.6109 -22.8499
RightLeg  13.982 -6.88324 -2.53276
RightFoot  -3.62225 -0.416463 5.17475
RightToes  -1.33073e-015 0 -3.6325e-017
Spine  10.9368 0.670442 -5.76195
Spine1  10.3204 -1.46178 6.55397
HEad  -19.0434 -55.1685 24.6194
LeftShoulder1  0.206357 2.90528 -28.3197
LeftArm  -9.19681 15.1276 -36.7648
LeftForeArm  71.9508 -79.15 -88.6805
LeftHand  -0.17277 1.65151 5.18046
RightShoulder  -0.617428 -5.24682 28.675
RightArm  -12.0236 -6.30182 37.3004
RightForeArm  68.689 78.7643 93.957
RightHand  -0.0613996 2.21852 -1.1232
LeftUpLeg  -2.52639 3.59579 16.1652
LeftLeg  17.3066 -3.96633 -0.942122
LeftFoot  -9.3792 0.262889 -12.0179
LeftToes  -1.93726e-010 2.42366e-011 2.16268e-013
283
root  23.8233 37.4085 22.9097 176.692 15.887 176.787
RightUpLeg  -12.3026 -21.1289 -23.0518
RightLeg  17.7334 -3.4559 -1.34734
RightFoot  1.81789 -1.0208 9.13093
RightToes  -1.33073e-015 0 -3.6325e-017
Spine  11.9239 0.0553603 -3.13359
Spine1  10.353 -1.30619 4.53099
HEad  -23.6302 -52.9127 27.611
LeftShoulder1  0.167363 3.01402 -28.0427
LeftArm  -9.45356 15.3267 -37.0696
LeftForeArm  70.6221 -79.1524 -87.043
LeftHand  -0.17024 1.36181 4.76916
RightShoulder  -0.663739 -5.36907 28.868
RightArm  -12.0461 -5.75624 37.0179
RightForeArm  73.4097 78.6617 98.6702
RightHand  -0.0712362 1.95292 -1.29924
LeftUpLeg  -1.96959 2.37512 16.8215
LeftLeg  16.9102 -2.40093 -0.377806
LeftFoot  -8.93238 0.339342 -13.5505
LeftToes  -1.93726e-010 2.42366e-011 2.16268e-013
284
root  24.9353 37.1309 23.0758 176.841 17.4225 177.168
RightUpLeg  -15.8789 -23.6807 -20.6342
RightLeg  23.2449 1.46959 0.429021
RightFoot  2.13496 -0.912417 7.84381
RightToes  -1.33073e-015 0 -3.6325e-017
Spine  13.3076 -0.3544 0.758544
Spine1  10.1658 -0.851884 2.64916
HEad  -22.8073 -54.2862 23.8781
LeftShoulder1  0.21812 2.86324 -27.9044
LeftArm  -10.1506 16.3669 -38.158
LeftForeArm  70.1892 -79.152 -86.4783
LeftHand  -0.180932 1.14812 4.85567
RightShoulder  -0.555351 -5.11145 27.759
RightArm  -12.3326 -5.37762 37.1519
RightForeArm  79.219 78.4397 104.406
RightHand  -0.0837623 1.8131 -1.50815
LeftUpLeg  -1.49579 3.32869 19.2097
LeftLeg  17.2744 -1.72753 -0.232451
LeftFoot  -7.95136 0.4736 -14.222
LeftToes  -1.93726e-010 2.42366e-011 2.16268e-013
285
root  26.1155 36.9925 23.2728 177.449 18.8758 177.697
RightUpLeg  -18.5469 -24.0049 -17.724
RightLeg  26.8846 2.16197 0.960135
RightFoot  0.44143 -0.812664 7.85127
RightToes  -1.33073e-015 0 -3.6325e-017
Spine  13.9285 -0.576865 3.34522
Spine1  10.5645 -0.69555 2.43527
HEad  -26.1271 -52.4766 25.9842
LeftShoulder1  0.187093 2.95993 -28.2495
LeftArm  -10.3521 16.6728 -38.3632
LeftForeArm  69.5095 -79.1435 -85.759
LeftHand  -0.186122 1.38141 5.25551
RightShoulder  -0.462375 -4.85221 27.4093
RightArm  -12.1533 -3.68803 36.2278
RightForeArm  81.3751 78.2472 107.289
RightHand  -0.119097 2.28563 -2.00513
LeftUpLeg  -1.94005 4.47441 21.586
LeftLeg  18.2845 -0.0405217 0.31099
LeftFoot  -4.81618 0.786086 -13.3647
LeftToes  -1.93726e-010 2.42366e-011 2.16268e-013
286
root  27.1919 37.0383 23.4974 177.541 18.8494 176.84
RightUpLeg  -20.0871 -24.6644 -16.655
RightLeg  29.6126 2.48955 1.28732
RightFoot  -1.49959 -0.523985 5.97315
RightToes  -1.33073e-015 0 -3.6325e-017
Spine  14.7754 -0.990333 3.75727
Spine1  10.8814 -1.24658 3.34246
HEad  -25.9405 -51.3624 25.1757
LeftShoulder1  0.230358 2.82992 -28.0154
LeftArm  -10.2294 16.1544 -39.1396
LeftForeArm  65.5622 -79.0701 -81.3226
LeftHand  -0.173339 1.0921 4.58022
RightShoulder  -0.493047 -4.94222 27.4341
RightArm  -12.0474 -1.54742 35.3904
RightForeArm  79.9814 78.2455 106.716
RightHand  -0.155504 1.72264 -2.69357
LeftUpLeg  -3.82549 2.68798 21.2439
LeftLeg  20.4525 4.6548 2.28636
LeftFoot  0.80857 0.953896 -9.28826
LeftToes  -1.93726e-010 2.42366e-011 2.16268e-013
287
root  28.1467 37.2056 23.6492 177.627 19.2117 176.404
RightUpLeg  -20.5109 -24.5235 -15.3596
RightLeg  30.3702 2.41843 1.28845
RightFoot  -2.76481 -0.38918 4.94484
RightToes  -1.33073e-015 0 -3.6325e-017
Spine  15.7486 -1.47932 4.90159
Spine1  11.0117 -1.59061 3.33232
HEad  -26.3576 -49.9695 25.0434
LeftShoulder1  0.313463 2.5902 -28.171
LeftArm  -10.0694 15.5086 -39.8678
LeftForeArm  59.8431 -78.851 -75.9069
LeftHand  -0.201266 0.818714 5.06784
RightShoulder  -0.499117 -4.97603 27.0701
RightArm  -12.1479 0.351505 35.0105
RightForeArm  76.1577 78.4562 102.785
RightHand  -0.149505 1.86216 -2.56108
LeftUpLeg  -6.16101 1.14773 20.4278
LeftLeg  24.1476 7.69252 4.01737
LeftFoot  4.77228 0.580922 -4.13754
LeftToes  -1.93726e-010 2.42366e-011 2.16268e-013
288
root  28.9762 37.4586 23.7092 178.158 19.7806 176.179
RightUpLeg  -20.5675 -25.1885 -13.8677
RightLeg  29.6049 3.00744 1.60719
RightFoot  -3.4931 -0.329283 4.45286
RightToes  -1.33073e-015 0 -3.6325e-017
Spine  15.9873 -1.99148 6.27036
Spine1  11.2134 -1.94725 3.28173
HEad  -26.25 -49.0704 24.1558
LeftShoulder1  0.276967 2.70139 -28.3564
LeftArm  -9.46442 14.343 -40.5005
LeftForeArm  53.7543 -78.4859 -69.9835
LeftHand  -0.218798 0.839245 5.53804
RightShoulder  -0.401558 -4.70441 26.4161
RightArm  -12.5753 1.66429 34.6843
RightForeArm  73.1179 78.5301 100.35
RightHand  -0.156862 1.96583 -2.64901
LeftUpLeg  -8.94526 2.20395 18.9424
LeftLeg  28.467 3.01793 2.09738
LeftFoot  1.75247 0.431337 -3.8899
LeftToes  -1.93726e-010 2.42366e-011 2.16268e-013
289
root  29.7351 37.7711 23.7494 178.71 20.8938 175.68
RightUpLeg  -20.5159 -25.497 -12.5656
RightLeg  27.9278 3.70347 1.884
RightFoot  -3.73631 -0.306813 4.22939
RightToes  -1.33073e-015 0 -3.6325e-017
Spine  16.328 -1.70389 6.49533
Spine1  10.8425 -1.94379 4.54708
HEad  -25.8396 -49.1826 22.2334
LeftShoulder1  0.319432 2.59289 -28.9477
LeftArm  -8.44418 12.9103 -40.7603
LeftForeArm  47.0085 -77.9164 -63.4729
LeftHand  -0.251 0.278765 5.73411
RightShoulder  -0.280267 -4.36188 25.4485
RightArm  -13.3767 1.72875 34.1992
RightForeArm  73.4689 78.5034 100.874
RightHand  -0.167273 1.96007 -2.82416
LeftUpLeg  -11.5651 3.9175 16.1802
LeftLeg  32.2414 0.188258 0.500423
LeftFoot  -0.982408 0.421978 -4.57547
LeftToes  -1.93726e-010 2.42366e-011 2.16268e-013
290
root  30.4898 38.1853 23.7442 179.015 22.2842 174.444
RightUpLeg  -19.9958 -25.8134 -11.9982
RightLeg  25.2304 4.86534 2.25088
RightFoot  -3.36492 -0.31447 4.18709
RightToes  -1.33073e-015 0 -3.6325e-017
Spine  16.6534 -1.28969 6.1227
Spine1  10.1836 -1.53034 4.31789
HEad  -25.6774 -49.5856 21.1296
LeftShoulder1  0.345933 2.51199 -28.7406
LeftArm  -7.47122 11.9568 -41.2419
LeftForeArm  44.0771 -77.5807 -60.4276
LeftHand  -0.246296 0.791533 6.16873
RightShoulder  -0.317055 -4.46973 25.6816
RightArm  -14.0438 1.87768 33.4352
RightForeArm  72.6512 78.4712 100.87
RightHand  -0.189766 1.65218 -3.2796
LeftUpLeg  -13.4247 5.84805 12.0297
LeftLeg  33.6424 0.421828 0.656403
LeftFoot  -2.54535 0.3489 -4.32577
LeftToes  -1.93726e-010 2.42366e-011 2.16268e-013
291
root  31.2561 38.6384 23.657 179.678 22.9097 173.549
RightUpLeg  -19.0161 -25.6594 -11.4601
RightLeg  21.9887 5.0807 2.20289
RightFoot  -2.56836 -0.293172 3.58804
RightToes  -1.33073e-015 0 -3.6325e-017
Spine  16.049 -1.05512 5.72403
Spine1  9.72089 -1.42487 4.17335
HEad  -25.2969 -49.612 19.8478
LeftShoulder1  0.401989 2.35049 -28.7179
LeftArm  -7.07638 11.2991 -41.543
LeftForeArm  42.252 -77.3535 -58.6286
LeftHand  -0.204707 0.932862 5.27353
RightShoulder  -0.345443 -4.55736 25.7143
RightArm  -14.8248 0.941258 33.3814
RightForeArm  73.841 78.4157 102.146
RightHand  -0.211648 2.27962 -3.38846
LeftUpLeg  -15.2092 7.05401 7.75024
LeftLeg  32.9426 2.09809 1.80201
LeftFoot  -3.94838 0.264523 -3.73451
LeftToes  -1.93726e-010 2.42366e-011 2.16268e-013
